<svg width="18" height="18" viewBox="0 0 18 18" xmlns="http://www.w3.org/2000/svg" aria-hidden="true">
  <path fill="#4285F4" d="M17.64 9.2045c0-.6382-.0573-1.2518-.1636-1.8409H9v3.4818h4.8436c-.2086 1.125-.8427 2.0782-1.7959 2.7164v2.2582h2.9086c1.7018-1.5668 2.6837-3.8732 2.6837-6.6155Z"/>
  <path fill="#34A853" d="M9 18c2.43 0 4.4673-.8059 5.9564-2.1805l-2.9086-2.2582c-.8059.54-1.8368.8591-3.0478.8591-2.3441 0-4.3282-1.5832-5.0364-3.7105H.9573v2.3318A8.9999 8.9999 0 0 0 9 18Z"/>
  <path fill="#FBBC05" d="M3.9636 10.7095A5.4097 5.4097 0 0 1 3.6818 9c0-.5932.1018-1.1686.2818-1.7095V4.9582H.9573A8.9998 8.9998 0 0 0 0 9c0 1.4523.3482 2.8277.9573 4.0418l3.0063-2.3323Z"/>
  <path fill="#EA4335" d="M9 3.5795c1.3214 0 2.5077.4541 3.44 1.3459l2.5814-2.5813C13.4632.8918 11.4259 0 9 0 5.4873 0 2.4655 2.0195.9573 4.9582l3.0063 2.3323C4.6718 5.1627 6.6559 3.5795 9 3.5795Z"/>
</svg>
