<svg width="64" height="64" viewBox="0 0 64 64" fill="none" xmlns="http://www.w3.org/2000/svg">
  <rect width="64" height="64" rx="14" fill="#07C160"/>
  <path d="M27.5 17C17.835 17 10 23.9 10 32.41C10 37.292 12.61 41.653 16.692 44.494L14.952 50.179C14.826 50.592 15.278 50.935 15.637 50.689L22.427 46.031C24.055 46.455 25.753 46.68 27.5 46.68C37.165 46.68 45 39.78 45 31.27C45 22.76 37.165 17 27.5 17Z" fill="white"/>
  <path d="M42.063 24.554C34.904 24.554 29.101 29.665 29.101 35.969C29.101 42.273 34.904 47.384 42.063 47.384C43.428 47.384 44.744 47.198 45.981 46.854L51.218 50.382C51.552 50.607 51.988 50.289 51.87 49.908L50.56 45.669C53.512 43.594 55.025 40.64 55.025 37.347C55.025 30.434 49.222 24.554 42.063 24.554Z" fill="white"/>
  <circle cx="21.2" cy="29.4" r="2.25" fill="#07C160"/>
  <circle cx="33.8" cy="29.4" r="2.25" fill="#07C160"/>
  <circle cx="37.45" cy="36.1" r="1.95" fill="#07C160"/>
  <circle cx="46.55" cy="36.1" r="1.95" fill="#07C160"/>
</svg>
