<svg width="64" height="64" viewBox="0 0 64 64" fill="none" xmlns="http://www.w3.org/2000/svg">
  <rect width="64" height="64" rx="14" fill="#25D366"/>
  <path d="M32 14C22.059 14 14 22.059 14 32C14 35.481 15.002 38.83 16.873 41.733L14.5 49.5L22.49 47.203C25.249 48.868 28.484 49.75 32 49.75C41.941 49.75 50 41.691 50 31.75C50 21.809 41.941 14 32 14Z" fill="white"/>
  <path d="M26.99 23.938C26.418 22.667 25.818 22.641 25.275 22.619C24.829 22.601 24.32 22.603 23.811 22.603C23.302 22.603 22.476 22.794 21.777 23.556C21.078 24.319 19.11 26.159 19.11 29.905C19.11 33.651 21.84 37.271 22.222 37.78C22.603 38.289 27.437 46.13 35.047 49.115C41.366 51.593 42.657 51.099 44.053 50.972C45.449 50.845 48.568 49.132 49.204 47.356C49.84 45.579 49.84 44.054 49.649 43.736C49.458 43.418 48.95 43.228 48.187 42.846C47.425 42.465 43.672 40.625 42.973 40.371C42.274 40.116 41.767 39.99 41.257 40.753C40.748 41.515 39.289 43.228 38.844 43.736C38.398 44.245 37.953 44.309 37.19 43.927C36.427 43.545 33.969 42.74 31.055 40.139C28.788 38.116 27.256 35.618 26.811 34.856C26.365 34.093 26.764 33.683 27.146 33.302C27.489 32.959 27.909 32.412 28.29 31.967C28.672 31.521 28.799 31.204 29.053 30.695C29.308 30.186 29.18 29.741 28.99 29.359C28.799 28.978 27.312 25.173 26.99 23.938Z" fill="#25D366"/>
</svg>
